<?xml version="1.0" standalone="no"?><!DOCTYPE svg PUBLIC "-//W3C//DTD SVG 1.1//EN" "http://www.w3.org/Graphics/SVG/1.1/DTD/svg11.dtd"><svg class="icon" width="128px" height="128.00px" viewBox="0 0 1024 1024" version="1.1" xmlns="http://www.w3.org/2000/svg"><path d="M526.912 900.096h-0.32a13.888 13.888 0 0 1-13.504-11.456l-48.064-279.552-43.84 205.504a13.952 13.952 0 0 1-14.336 10.88 13.824 13.824 0 0 1-13.248-12.032L324.224 228.672l-62.272 306.24c-1.28 6.4-7.04 11.008-13.696 11.008H44.8a13.824 13.824 0 0 1-13.952-13.696c0-7.552 6.272-13.696 13.952-13.696h192l77.376-380.48a13.952 13.952 0 0 1 14.272-11.072 13.888 13.888 0 0 1 13.312 12.16l69.696 587.328 41.344-193.984a13.888 13.888 0 0 1 13.952-10.88 13.888 13.888 0 0 1 13.504 11.456l48.128 279.936L674.56 134.784a14.08 14.08 0 1 1 27.072-1.216l123.136 394.24H979.2c7.744 0 13.952 6.144 13.952 13.696a13.824 13.824 0 0 1-13.952 13.696h-164.8a13.952 13.952 0 0 1-13.376-9.664l-110.336-353.216-150.08 696.896a13.952 13.952 0 0 1-13.696 10.88z" fill="#ffffff" /><path d="M374.528 545.728h-123.52l79.168-355.392 79.104 609.28 58.688-251.072 60.032 318.784L688.384 187.52l125.44 366.656H379.456l-4.928-8.448z" fill="#ffffff" /></svg>