<?xml version="1.0" standalone="no"?><!DOCTYPE svg PUBLIC "-//W3C//DTD SVG 1.1//EN" "http://www.w3.org/Graphics/SVG/1.1/DTD/svg11.dtd"><svg class="icon" width="128px" height="128.00px" viewBox="0 0 1024 1024" version="1.1" xmlns="http://www.w3.org/2000/svg"><path d="M57.443902 223.531707C26.22439 223.531707 0 249.756098 0 282.22439s26.22439 58.692683 57.443902 58.692683 57.443902-26.22439 57.443903-58.692683-26.22439-58.692683-57.443903-58.692683z m0 92.409756c-17.482927 0-32.468293-14.985366-32.468292-33.717073s14.985366-33.717073 32.468292-33.717073 32.468293 14.985366 32.468293 33.717073-14.985366 33.717073-32.468293 33.717073zM519.492683 187.317073c31.219512 0 57.443902-26.22439 57.443902-58.692683s-26.22439-58.692683-57.443902-58.692683S462.04878 96.156098 462.04878 128.62439s26.22439 58.692683 57.443903 58.692683z m0-92.409756c17.482927 0 32.468293 14.985366 32.468293 33.717073 0 18.731707-14.985366 33.717073-32.468293 33.717073S487.02439 147.356098 487.02439 128.62439c0-18.731707 14.985366-33.717073 32.468293-33.717073zM966.556098 223.531707c-31.219512 0-57.443902 26.22439-57.443903 58.692683s26.22439 58.692683 57.443903 58.692683 57.443902-26.22439 57.443902-58.692683-26.22439-58.692683-57.443902-58.692683z m0 92.409756c-17.482927 0-32.468293-14.985366-32.468293-33.717073s14.985366-33.717073 32.468293-33.717073 32.468293 14.985366 32.468292 33.717073-14.985366 33.717073-32.468292 33.717073zM832.936585 929.092683H176.078049c-7.492683 0-12.487805 4.995122-12.487805 12.487805s4.995122 12.487805 12.487805 12.487805h655.609756c7.492683 0 12.487805-4.995122 12.487805-12.487805s-4.995122-12.487805-11.239025-12.487805z" fill="#ffffff" /><path d="M269.736585 855.414634h561.95122l62.439024-387.121951-162.341463 99.902439-171.082927-209.795122-188.565854 212.292683L212.292683 463.297561z" fill="#ffffff" /><path d="M885.385366 379.629268l-171.082927 122.380488-193.560976-242.263415c-6.243902-7.492683-18.731707-8.741463-24.975609 0l-199.804878 242.263415-166.087805-121.131707c-6.243902-4.995122-16.234146-3.746341-22.478049 2.497561-3.746341 3.746341-4.995122 8.741463-3.746342 13.736585l66.185366 447.063415c1.24878 11.239024 11.239024 21.229268 23.72683 21.229268h631.882926c11.239024 0 21.229268-8.741463 23.72683-19.980488l61.190244-447.063414c1.24878-4.995122 0-9.990244-3.746342-13.736586-4.995122-8.741463-13.736585-9.990244-21.229268-4.995122zM824.195122 837.931707H196.058537L132.370732 412.097561l156.097561 114.887805c6.243902 4.995122 16.234146 3.746341 22.478048-2.497561l197.307318-241.014634L699.317073 523.239024c4.995122 6.243902 13.736585 8.741463 22.478049 3.746342l162.341463-116.136586L824.195122 837.931707z" fill="#ffffff" /></svg>