<?xml version="1.0" standalone="no"?><!DOCTYPE svg PUBLIC "-//W3C//DTD SVG 1.1//EN" "http://www.w3.org/Graphics/SVG/1.1/DTD/svg11.dtd"><svg class="icon" width="200px" height="199.80px" viewBox="0 0 1025 1024" version="1.1" xmlns="http://www.w3.org/2000/svg"><path fill="#ffffff" d="M684.035682 134.686847l0.09999 0c37.396348-9.899033 75.792599-8.799141 114.388829 3.299678l0.09999 0c34.496631 10.698955 66.993458 30.297041 93.890831 56.694464 26.497412 25.897471 46.395469 57.394395 57.594376 91.191095 11.798848 36.296455 13.098721 72.492921 3.799629 107.489503-4.499561 17.09833 5.599453 34.596621 22.697783 39.096182 2.799727 0.699932 5.499463 1.099893 8.199199 1.099893 14.198613 0 27.097354-9.499072 30.896983-23.797676 12.498779-47.195391 10.898936-95.590665-4.799531-143.785959l-0.09999-0.19998c-14.498584-43.395762-39.896104-83.791817-73.592813-116.788595-34.196661-33.496729-75.492628-58.394298-119.688312-72.09296-49.495167-15.598477-101.390099-16.99834-149.885363-4.0996-44.495655 11.598867-86.491554 34.09667-124.887804 66.593497l-0.999902 0.899912-29.097159 29.197149-14.298604-14.098623-1.499854-1.499854-0.599941-0.599941c-42.49585-40.396055-89.591251-67.593399-139.98633-80.892101-48.395274-12.59877-100.090226-11.098916-149.485402 4.39957-44.595645 13.898643-85.991603 38.796211-119.688312 72.19295-33.99668 33.296748-59.49419 73.592813-73.892784 116.688605l0 0.09999c-15.798457 47.995313-17.398301 96.390587-4.899522 143.885949l0 0.19998c12.59877 46.69544 39.896104 92.290987 79.192267 131.887121L369.166431 824.319502c6.299385 6.299385 14.498584 9.399082 22.697783 9.399082 8.199199 0 16.298408-3.099697 22.597793-9.299092 12.498779-12.498779 12.59877-32.696807 0.09999-45.295577L133.089485 496.75149c-31.396934-31.696905-53.094815-67.393419-62.693878-103.389904-9.299092-35.296553-7.999219-71.393028 3.799629-107.389513 11.198906-33.496729 31.196953-64.993653 57.894346-91.191095l0.09999-0.09999c26.397422-26.197442 58.894249-45.795528 93.790841-56.594473l0.09999 0c37.896299-11.898838 77.392442-13.198711 114.088859-3.599648 39.696124 10.498975 77.292452 32.396836 111.889074 65.093643l15.598477 15.398496-65.793575 66.093546c-12.498779 12.498779-12.398789 32.796797 0.09999 45.295577 12.498779 12.498779 32.796797 12.398789 45.295577-0.09999l137.986525-138.586466C616.042322 161.584221 649.23908 143.785959 684.035682 134.686847zM1007.504094 697.031932l-49.995118 0c-4.599551-16.498389-11.098916-32.196856-19.298115-46.79543l35.296553-35.296553c6.499365-6.499365 6.499365-16.99834 0-23.497705l-56.994434-56.994434c-3.199688-3.199688-7.499268-4.799531-11.698858-4.799531-4.29958 0-8.49917 1.599844-11.698858 4.799531l-35.296553 35.296553c-14.598574-8.199199-30.297041-14.698565-46.79543-19.298115l0-49.995118c0-9.099111-7.499268-16.598379-16.598379-16.598379l-80.59213 0c-9.099111 0-16.598379 7.499268-16.598379 16.598379l0 49.995118c-16.498389 4.599551-32.196856 11.098916-46.79543 19.298115L615.14241 534.547799c-3.199688-3.199688-7.499268-4.799531-11.698858-4.799531s-8.49917 1.599844-11.698858 4.799531l-56.994434 56.994434c-6.399375 6.499365-6.399375 16.99834 0 23.497705l35.296553 35.296553c-8.199199 14.598574-14.698565 30.297041-19.298115 46.79543l-49.995118 0c-9.099111 0-16.598379 7.499268-16.598379 16.598379l0 80.59213c0 9.099111 7.499268 16.598379 16.598379 16.598379l49.995118 0c4.599551 16.498389 11.098916 32.196856 19.298115 46.79543L534.65027 892.912803c-6.399375 6.499365-6.399375 16.99834 0 23.497705l56.994434 56.994434c3.199688 3.199688 7.499268 4.799531 11.698858 4.799531s8.49917-1.599844 11.698858-4.799531l35.296553-35.296553c14.598574 8.199199 30.297041 14.698565 46.79543 19.298115l0 49.995118c0 9.099111 7.499268 16.598379 16.598379 16.598379l80.59213 0c9.099111 0 16.598379-7.499268 16.598379-16.598379l0-49.995118c16.498389-4.599551 32.196856-11.098916 46.79543-19.298115l35.296553 35.296553c3.199688 3.199688 7.499268 4.799531 11.698858 4.799531 4.29958 0 8.49917-1.599844 11.698858-4.799531l56.994434-56.994434c6.499365-6.499365 6.499365-16.99834 0-23.497705l-35.296553-35.296553c8.199199-14.598574 14.698565-30.297041 19.298115-46.79543l49.995118 0c9.099111 0 16.598379-7.499268 16.598379-16.598379l0-80.59213C1024.102473 704.5312 1016.603206 697.031932 1007.504094 697.031932zM895.914991 793.72249c-3.199688 11.498877-7.699248 22.497803-13.398692 32.596817l-20.298018 35.896495-35.896495 20.298018c-10.099014 5.699443-20.997949 10.199004-32.596817 13.398692L754.028847 906.911436l-39.696124-11.098916c-11.498877-3.199688-22.497803-7.699248-32.596817-13.398692l-35.896495-20.298018-20.298018-35.896495c-5.699443-10.099014-10.199004-20.997949-13.398692-32.596817L601.143777 754.026366l11.098916-39.696124c3.199688-11.498877 7.699248-22.497803 13.398692-32.596817l20.298018-35.896495 35.896495-20.298018c10.099014-5.699443 20.997949-10.199004 32.596817-13.398692l39.696124-11.098916 39.696124 11.098916c11.498877 3.199688 22.497803 7.699248 32.596817 13.398692l35.896495 20.298018 20.298018 35.896495c5.699443 10.099014 10.199004 20.997949 13.398692 32.596817l11.098916 39.696124L895.914991 793.72249zM754.028847 652.736257c-55.894542 0-101.290109 45.295577-101.290109 101.290109 0 55.894542 45.295577 101.290109 101.290109 101.290109 55.894542 0 101.290109-45.295577 101.290109-101.290109C855.318956 698.031834 810.023379 652.736257 754.028847 652.736257zM754.028847 791.222734c-20.597989 0-37.296358-16.698369-37.296358-37.296358s16.698369-37.296358 37.296358-37.296358 37.296358 16.698369 37.296358 37.296358S774.626836 791.222734 754.028847 791.222734z" /></svg>