<?xml version="1.0" encoding="UTF-8"?>
<svg width="24px" height="24px" viewBox="0 0 24 24" version="1.1" xmlns="http://www.w3.org/2000/svg" xmlns:xlink="http://www.w3.org/1999/xlink">
    <title>emoji@2x</title>
    <g id="页面-1" stroke="none" stroke-width="1" fill="none" fill-rule="evenodd">
        <g id="4" transform="translate(-390.000000, -792.000000)" fill="#000000" fill-rule="nonzero">
            <g id="emoji" transform="translate(390.000000, 792.000000)">
                <rect id="矩形" opacity="0" x="0" y="0" width="24" height="24"></rect>
                <path d="M12,19.5 C7.8645,19.5 4.5,16.1355 4.5,12 C4.5,7.8645 7.8645,4.5 12,4.5 C16.1355,4.5 19.5,7.8645 19.5,12 C19.5,16.1355 16.1355,19.5 12,19.5 M12,3 C7.03725,3 3,7.03725 3,12 C3,16.96275 7.03725,21 12,21 C16.96275,21 21,16.96275 21,12 C21,7.03725 16.96275,3 12,3 M16.42125,13.6005 C16.0627361,13.3932771 15.6041197,13.515821 15.39675,13.87425 C14.7246741,15.0330829 13.4873667,15.7474194 12.14775,15.75 C10.8085142,15.7474613 9.57151868,15.0334256 8.8995,13.875 C8.69218611,13.5162911 8.23333395,13.3935611 7.87462501,13.600875 C7.51591607,13.8081889 7.39318613,14.2670411 7.6005,14.62575 C8.54158601,16.2471389 10.2730425,17.2466602 12.14775,17.25075 C14.0226224,17.2472732 15.7543623,16.2475883 16.695,14.62575 C16.7947521,14.4535143 16.8219505,14.248691 16.7706049,14.0563911 C16.7192593,13.8640913 16.5935811,13.7000873 16.42125,13.6005 M9,12 C9.41421356,12 9.75,11.6642136 9.75,11.25 L9.75,9 C9.75,8.58578644 9.41421356,8.25 9,8.25 C8.58578644,8.25 8.25,8.58578644 8.25,9 L8.25,11.25 C8.25,11.6642136 8.58578644,12 9,12 M15,12 C15.4142136,12 15.75,11.6642136 15.75,11.25 L15.75,9 C15.75,8.58578644 15.4142136,8.25 15,8.25 C14.5857864,8.25 14.25,8.58578644 14.25,9 L14.25,11.25 C14.25,11.6642136 14.5857864,12 15,12" id="形状"></path>
            </g>
        </g>
    </g>
</svg>