<?xml version="1.0" encoding="UTF-8"?>
<svg width="24px" height="24px" viewBox="0 0 24 24" version="1.1" xmlns="http://www.w3.org/2000/svg" xmlns:xlink="http://www.w3.org/1999/xlink">
    <title>发送图片</title>
    <g id="页面-1" stroke="none" stroke-width="1" fill="none" fill-rule="evenodd">
        <g id="4" transform="translate(-434.000000, -792.000000)" fill="#000000" fill-rule="nonzero">
            <g id="picture" transform="translate(434.000000, 792.000000)">
                <rect id="矩形" opacity="0" x="0" y="0" width="24" height="24"></rect>
                <path d="M9.195,18.7545 L14.88825,13.0605 L18.75525,16.9275 L18.756,18.75 L9.19425,18.7545 L9.195,18.7545 Z M5.25,5.25 L18.75,5.244 L18.7545,14.80575 L15.4185,11.46975 C15.2779519,11.3289627 15.0871842,11.2498491 14.88825,11.2498491 C14.6893158,11.2498491 14.4985481,11.3289627 14.358,11.46975 L7.0725,18.75525 L5.25,18.75525 L5.25,5.25 Z M18.756,3.75 L5.24325,3.75 C4.41906516,3.75165292 3.75157501,4.41981392 3.75074937,5.244 L3.75074937,18.756 C3.75,19.58025 4.419,20.25 5.2425,20.25 L18.75525,20.25 C19.5803136,20.2495866 20.2491726,19.5810633 20.25,18.756 L20.25,5.244 C20.2487609,4.41940037 19.5805996,3.75123907 18.756,3.75 Z M9.75,9 C9.94952651,8.99797419 10.1414712,9.07634113 10.2825651,9.21743495 C10.4236589,9.35852876 10.5020258,9.55047349 10.5,9.75 C10.5020258,9.94952651 10.4236589,10.1414712 10.2825651,10.2825651 C10.1414712,10.4236589 9.94952651,10.5020258 9.75,10.5 C9.55047349,10.5020258 9.35852876,10.4236589 9.21743495,10.2825651 C9.07634113,10.1414712 8.99797419,9.94952651 9,9.75 C9,9.32925 9.32925,9 9.75,9 M9.75,12 C10.9905,12 12,10.9905 12,9.75 C12,8.5095 10.9905,7.5 9.75,7.5 C8.5095,7.5 7.5,8.5095 7.5,9.75 C7.5,10.9905 8.5095,12 9.75,12" id="形状"></path>
            </g>
        </g>
    </g>
</svg>
