<?xml version="1.0" encoding="UTF-8"?>
<svg width="14px" height="14px" viewBox="0 0 14 14" version="1.1" xmlns="http://www.w3.org/2000/svg" xmlns:xlink="http://www.w3.org/1999/xlink">
    <title>商户管理</title>
    <g id="商户管理" stroke="none" stroke-width="1" fill="none" fill-rule="evenodd">
        <path d="M12.7404653,3.34003126 L11.6666309,1.08629158 C11.4970781,0.727841036 11.1391333,0.5 10.7420609,0.5 L3.16290577,0.5 C2.76003672,0.5 2.39484607,0.740901987 2.23253912,1.11241349 L1.19783228,3.4125921 L0.670334677,4.61129716 C0.45585763,5.09310114 0.43556926,5.64746595 0.657292154,6.12346506 C1.02827948,6.92453673 1.84126342,7.47890154 2.77887592,7.47890154 C3.55273229,7.47890154 4.24253685,7.10158518 4.66569427,6.51529359 C4.77583113,6.36581826 5.0033507,6.36581826 5.11493673,6.51529359 C5.53809415,7.09578031 6.22789871,7.47890154 7.00175508,7.47890154 C7.77561145,7.47890154 8.46541601,7.10158518 8.88857343,6.51529359 C8.99871029,6.36581826 9.22622986,6.36581826 9.33781589,6.51529359 C9.76097331,7.09578031 10.4507779,7.47890154 11.2246342,7.47890154 C12.1622467,7.47890154 12.9679848,6.93179281 13.3389722,6.13652601 C13.5737376,5.64746595 13.5404067,5.07423532 13.3128871,4.58517526 L12.7404653,3.34003126 Z M11.1724641,8.22047332 C10.4696171,8.22047332 9.81894008,7.96651038 9.31752752,7.55001116 C9.20014482,7.45277964 9.03059201,7.45277964 8.92045515,7.55001116 C8.4190426,7.96651038 7.76836561,8.22047332 7.06551853,8.22047332 C6.36267145,8.22047332 5.71199446,7.96651038 5.2105819,7.55001116 C5.09319919,7.45277964 4.92364639,7.45277964 4.81350953,7.55001116 C4.31209697,7.96651038 3.66141999,8.22047332 2.9585729,8.22047332 C2.55570386,8.22047332 2.17167401,8.13630275 1.81952588,7.9853762 L1.81952588,12.5480018 C1.81952588,13.0762447 2.2426833,13.5 2.7701809,13.5 L11.3652037,13.5 C11.8927013,13.5 12.3158587,13.0762447 12.3158587,12.5480018 L12.3158587,7.9853762 C11.9477697,8.14210761 11.5637398,8.22047332 11.1724641,8.22047332 L11.1724641,8.22047332 Z M5.14826762,12.6858674 C5.14826762,12.8484037 5.01784239,12.9790132 4.85553544,12.9790132 L4.26282522,12.9790132 C4.10051826,12.9790132 3.97009303,12.8484037 3.97009303,12.6858674 L3.97009303,9.22326412 C3.97009303,9.06072784 4.10051826,8.93011833 4.26282522,8.93011833 L4.85553544,8.93011833 C5.01784239,8.93011833 5.14826762,9.06072784 5.14826762,9.22326412 L5.14826762,12.6858674 Z" id="形状" fill="#FFFFFF" fill-rule="nonzero"></path>
    </g>
</svg>