<?xml version="1.0" encoding="UTF-8"?>
<svg width="14px" height="14px" viewBox="0 0 14 14" version="1.1" xmlns="http://www.w3.org/2000/svg" xmlns:xlink="http://www.w3.org/1999/xlink">
    <title>权限</title>
    <g id="权限" stroke="none" stroke-width="1" fill="none" fill-rule="evenodd">
        <g transform="translate(1.000000, 0.000000)" fill="#FFFFFF" fill-rule="nonzero" id="形状">
            <path d="M4.73200022,0.241248349 C5.54125855,-0.0804161164 6.45874145,-0.0804161164 7.26799978,0.241248349 L7.26799978,0.241248349 L11.0319992,1.73694237 C11.6187381,1.96928723 11.9992445,2.50074586 12,3.08896134 L12,3.08896134 L12,9.0238457 C12.0001794,9.1736945 11.9759083,9.3227175 11.927999,9.46592275 C11.6519991,10.2542935 10.4839993,12.4131031 6.6239999,13.8866932 C6.22417043,14.0377689 5.77582957,14.0377689 5.3760001,13.8866932 C1.51600074,12.4131031 0.348000945,10.2506095 0.0720009873,9.46592275 C0.024091653,9.3227175 -0.000179353478,9.1736945 -6.93872216e-12,9.0238457 L-6.93872216e-12,9.0238457 L-6.93872216e-12,3.08896134 C0.000755541372,2.50074586 0.381261935,1.96928723 0.968000837,1.73694237 L0.968000837,1.73694237 Z M6,3 C4.8954305,3 4,3.8954305 4,5 C4,5.83935017 4.51704954,6.55793696 5.25001516,6.85462687 L5.25,10.25 C5.25,10.6642136 5.58578644,11 6,11 C6.41421356,11 6.75,10.6642136 6.75,10.25 L6.75,10.25 L6.75098877,6.85422019 C7.48342254,6.55728069 8,5.83896691 8,5 C8,3.8954305 7.1045695,3 6,3 Z"></path>
        </g>
    </g>
</svg>