<?xml version="1.0" standalone="no"?><!DOCTYPE svg PUBLIC "-//W3C//DTD SVG 1.1//EN" "http://www.w3.org/Graphics/SVG/1.1/DTD/svg11.dtd"><svg class="icon" width="200px" height="200.00px" viewBox="0 0 1024 1024" version="1.1" xmlns="http://www.w3.org/2000/svg"><path fill="#ffffff" d="M506.24 977.92s-0.64 0 0 0c-17.28 0-33.28-7.68-44.16-21.12L44.16 436.48a57.408 57.408 0 0 1-5.12-62.72L204.8 74.88c10.24-17.92 28.8-28.8 49.28-28.8h531.2c21.12 0 40.96 12.16 50.56 31.36l150.4 298.88c10.24 19.84 7.68 44.16-7.04 61.44l-429.44 520.32c-10.88 12.16-26.88 19.84-43.52 19.84z m-350.08-582.4L506.88 832l361.6-438.4-118.4-234.88H287.36l-131.2 236.8z"  /><path fill="#ffffff" d="M506.24 639.36H505.6c-17.92 0-35.2-8.96-45.44-23.68L297.6 386.56a56.384 56.384 0 1 1 92.16-65.28L507.52 486.4 631.04 320a56.192 56.192 0 1 1 90.24 67.2L551.68 616.32c-10.88 14.08-27.52 23.04-45.44 23.04z"  /></svg>