<?xml version="1.0" standalone="no"?><!DOCTYPE svg PUBLIC "-//W3C//DTD SVG 1.1//EN" "http://www.w3.org/Graphics/SVG/1.1/DTD/svg11.dtd"><svg class="icon" width="200px" height="174.15px" viewBox="0 0 1176 1024" version="1.1" xmlns="http://www.w3.org/2000/svg"><path fill="#ffffff" d="M393.0112 267.52c-217.088 0-393.0112 114.176-393.0112 255.0784 0 112.9472 113.152 208.5888 269.824 242.176-5.3248 52.0192-32.5632 146.0224-156.672 185.0368 0 0 217.8048 16.2816 390.2464-182.3744 163.328-31.0272 282.624-128.9216 282.624-244.8384 0-140.9024-175.9232-255.0784-393.0112-255.0784z m6.5536 467.1488a24.17664 24.17664 0 1 1 24.7808-24.1664 24.39168 24.39168 0 0 1-24.7808 24.1664z m23.3472-135.0656v45.8752a23.45984 23.45984 0 1 1-46.8992 0v-65.536a23.808 23.808 0 0 1 23.4496-24.1664 5.12 5.12 0 0 1 1.2288 0.2048v-0.1024a64.512 64.512 0 0 0 64.4096-63.7952 64.26624 64.26624 0 0 0-128.512 0 61.96224 61.96224 0 0 0 5.0176 24.2688v0.2048h0.1024a24.02304 24.02304 0 0 1-43.3152 20.48h-0.1024v-0.1024a23.63392 23.63392 0 0 1-2.56-6.2464 107.40736 107.40736 0 0 1-7.3728-38.6048 112.51712 112.51712 0 1 1 134.5536 107.52z m753.2544-338.432c0-103.424-129.1264-187.2896-288.5632-187.2896-132.8128 0-244.5312 58.368-278.016 137.728 159.4368 43.3152 271.872 147.3536 271.872 269.1072a205.57824 205.57824 0 0 1-2.048 26.3168 359.33184 359.33184 0 0 0 213.7088 67.7888c-91.136-28.5696-111.104-97.6896-114.9952-135.7824 114.9952-24.6784 198.0416-95.0272 198.0416-177.8688z m-292.6592-78.5408a26.3168 26.3168 0 0 1 52.6336 0v98.6112a26.32704 26.32704 0 0 1-52.6336 0v-98.6112z m26.4192 193.024a26.89024 26.89024 0 1 1 27.5456-26.9312 27.20768 27.20768 0 0 1-27.5456 26.9312z" /></svg>