<?xml version="1.0" encoding="UTF-8"?>
<svg width="14px" height="14px" viewBox="0 0 14 14" version="1.1" xmlns="http://www.w3.org/2000/svg" xmlns:xlink="http://www.w3.org/1999/xlink">
    <title>用户管理</title>
    <g id="用户管理" stroke="none" stroke-width="1" fill="none" fill-rule="evenodd">
        <g id="people_fill" transform="translate(1.000000, 1.000000)" fill="#FFFFFF" fill-rule="nonzero">
            <path d="M11.1430909,7.93973166 C11.0765455,7.90934863 10.1449091,7.48961264 8.93890909,7.13458126 C8.53076942,7.01366599 8.11785505,6.91060919 7.70127273,6.82568708 C8.31654545,6.28779485 8.71636364,5.49502272 8.71636364,4.59872322 L8.71636364,2.43421337 C8.71365572,0.812873297 7.43870425,-0.5 5.86690909,-0.5 C4.296,-0.5 3.01690909,0.813784895 3.01690909,2.43421337 L3.01690909,4.59872322 C3.01690909,5.51921662 3.43909091,6.33280675 4.086,6.87126163 C3.65181818,6.96634928 3.23181818,7.08056698 2.84509091,7.19984852 C2.17526131,7.40589864 1.51714057,7.65047092 0.873818182,7.93241723 C0.375272727,8.13890933 0,8.71674962 0,9.27602251 L0,11.5913222 L0.0289090909,11.6790954 C0.190909091,12.1702878 0.627818182,12.5 1.11654545,12.5 L10.8834545,12.5 C11.4438219,12.5 11.917398,12.0715463 11.9907273,11.4984852 L12,9.27602251 C12,8.72068816 11.6258182,8.14397317 11.1430909,7.93973166" id="路径"></path>
        </g>
    </g>
</svg>